{"title":"House of Cards *2016* WebRIP x264 [NAPISY PL]","uid":14432989,"size":11058095757,"categoryP":"video","categoryS":"hd___tv_shows","magnet":"?xt=urn:btih:7d0275c7e1c0004e300ffa66d7b2c8f7a0fbd1bc&amp;dn=House+of+Cards+%2A2016%2A+WebRIP+x264+%5BNAPISY+PL%5D&amp;tr=udp%3A%2F%2Ftracker.leechers-paradise.org%3A6969&amp;tr=udp%3A%2F%2Fzer0day.ch%3A1337&amp;tr=udp%3A%2F%2Fopen.demonii.com%3A1337&amp;tr=udp%3A%2F%2Ftracker.coppersurfer.tk%3A6969&amp;tr=udp%3A%2F%2Fexodus.desync.com%3A6969","seeders":20,"leechers":8,"uploader":"maryl16","files":26,"time":1461624508,"description":"House of Cards *2016* WebRIP x264 [NAPISY PL]\r\n\r\nINFO:\r\nProdukcja[/b]: USA\r\nGatunek: [/b]Dramat, Polityczny\r\nPremiera[/b]: 4 marca 2016 r.\r\nReżyseria [/b]\r\nDavid Fincher\r\nJames Foley\r\nScenariusz \r\nBeau Willimon\r\nCzas trwania: ok 50 minut\r\n\r\nOPIS:\r\nFrancis Underwood jest bezwzględnym politykiem próbującym się zemścić na prezydencie, który pominął go przy obsadzeniu stanowiska sekretarza stanu.\r\n\r\nOBSADA:\r\nKevin Spacey\r\nRobin Wright\r\nKate Mara\r\nKristen Connolly\r\nCorey Stoll\r\n\r\nDANE TECHNICZNE:\r\nGeneral\r\nFormat                         : Matroska\r\nFormat version                 : Version 4 / Version 2\r\nFile size                      : 871 MiB\r\nDuration                       : 48mn 40s\r\nOverall bit rate               : 2 503 Kbps\r\nEncoded date                   : UTC 2016-03-04 15:30:08\r\nWriting application            : mkvmerge v6.6.0 ('The Edge Of The In Between') built on Dec  1 2013 17:55:00\r\nWriting library                : libebml v1.3.0 + libmatroska v1.4.1\r\n\r\nVideo\r\nID                             : 1\r\nFormat                         : AVC\r\nFormat/Info                    : Advanced Video Codec\r\nFormat profile                 :   \r\nFormat settings, CABAC         : Yes\r\nFormat settings, ReFrames      : 8 frames\r\nCodec ID                       : V_MPEG4/ISO/AVC\r\nDuration                       : 48mn 40s\r\nBit rate                       : 1 813 Kbps\r\nWidth                          : 1 280 pixels\r\nHeight                         : 640 pixels\r\nDisplay aspect ratio           : 2.000\r\nFrame rate mode                : Constant\r\nFrame rate                     : 23.976 fps\r\nColor space                    : YUV\r\nChroma subsampling             : 4:2:0\r\nBit depth                      : 8 bits\r\nScan type                      : Progressive\r\nBits/(Pixel*Frame)             : 0.092\r\nStream size                    : 631 MiB (72%)\r\nWriting library                : x264 core 148 r2665 a01e339\r\n\r\n\r\nAudio\r\nID                             : 2\r\nFormat                         : AC-3\r\nFormat/Info                    : Audio Coding 3\r\nMode extension                 : CM (complete main)\r\nFormat settings, Endianness    : Big\r\nCodec ID                       : A_AC3\r\nDuration                       : 48mn 40s\r\nBit rate mode                  : Constant\r\nBit rate                       : 640 Kbps\r\nChannel(s)                     : 6 channels\r\nChannel positions              : Front: L C R, Side: L R, LFE\r\nSampling rate                  : 48.0 KHz\r\nCompression mode               : Lossy\r\nStream size                    : 223 MiB (26%)\r\nLanguage                       : English\r\nDefault                        : Yes\r\nForced                         : No\r\n\r\n\r\nNapisy polskie w formie pliku txt","torrent":{"xt":"urn:btih:7d0275c7e1c0004e300ffa66d7b2c8f7a0fbd1bc","amp;dn":"House+of+Cards+%2A2016%2A+WebRIP+x264+%5BNAPISY+PL%5D","amp;tr":["udp%3A%2F%2Ftracker.leechers-paradise.org%3A6969","udp%3A%2F%2Fzer0day.ch%3A1337","udp%3A%2F%2Fopen.demonii.com%3A1337","udp%3A%2F%2Ftracker.coppersurfer.tk%3A6969","udp%3A%2F%2Fexodus.desync.com%3A6969"],"infoHash":"7d0275c7e1c0004e300ffa66d7b2c8f7a0fbd1bc","infoHashBuffer":{"type":"Buffer","data":[125,2,117,199,225,192,0,78,48,15,250,102,215,178,200,247,160,251,209,188]},"announce":[],"urlList":[]}}